<svg width="24" height="24" viewBox="0 0 24 24" fill="none" xmlns="http://www.w3.org/2000/svg">
<path d="M11 7C11 7 9.64989 9.64665 8.99999 13C8.35004 16.3533 8.49999 21 8.49999 21" stroke="#333333" stroke-width="2" stroke-linecap="round" stroke-linejoin="round"/>
<path d="M16.9765 11.6362C17.1493 11.7509 17.4228 11.8318 17.6907 11.8876C18.1564 11.9847 18.5867 11.6646 18.5746 11.189C18.552 10.3022 18.2061 8.85147 16.4454 7.68227C14.7831 6.57837 13.1323 6.56327 12.0916 6.72192C11.498 6.81242 11.2616 7.46102 11.6023 7.95552C11.9063 8.39692 12.2605 8.84272 12.5 8.92787C13 9.10562 13.6017 8.63692 14.0398 8.92787C14.478 9.21882 14.3476 9.89042 14.7858 10.1814C15.2239 10.4723 15.7924 10.0917 16.2305 10.3826C16.6686 10.6736 16.5383 11.3452 16.9765 11.6362Z" stroke="#333333" stroke-width="2" stroke-linecap="round" stroke-linejoin="round"/>
<path d="M10.0001 8.50016C10.429 8.35721 10.6944 7.88716 10.843 7.51091C10.9658 7.19996 10.8561 6.85666 10.5683 6.68656C9.92044 6.30361 8.53774 5.77961 6.38079 6.40601C4.24873 7.02521 3.68552 8.43391 3.54258 9.26356C3.47569 9.65176 3.73999 10.0029 4.13149 10.0464C4.41194 10.0776 4.71959 10.0638 4.90344 9.90771C5.30689 9.56526 5.41614 9.11646 5.86689 8.99571C6.31764 8.87491 6.70649 9.42456 7.15729 9.30381C7.60804 9.18301 7.66994 8.51256 8.12069 8.39181C8.57149 8.27101 9.25009 8.75016 10.0001 8.50016Z" stroke="#333333" stroke-width="2" stroke-linecap="round" stroke-linejoin="round"/>
<path d="M13.5 3.00011C12.2498 3.50011 10.9997 6.00011 11.0001 7.00011L17.5005 4.00012C16.8101 2.80438 14.7503 2.50011 13.5 3.00011Z" stroke="#333333" stroke-width="2" stroke-linecap="round" stroke-linejoin="round"/>
<path d="M9.99999 2.50019C12 3.211 11.6904 5.80449 11.0001 7.00019L5.00024 2.96101C5.50024 2.00019 7.99999 1.78938 9.99999 2.50019Z" stroke="#333333" stroke-width="2" stroke-linecap="round" stroke-linejoin="round"/>
<path d="M13 17.5C17.1421 17.5 19.5 18.3954 19.5 19.5C19.5 20.6046 16.1421 21.5 12 21.5C7.85785 21.5 4.5 20.6046 4.5 19.5C4.5 19.2304 4.70003 18.9733 5.06265 18.7386" stroke="#333333" stroke-width="2" stroke-linecap="round"/>
</svg>
