<svg width="24" height="24" viewBox="0 0 24 24" fill="none" xmlns="http://www.w3.org/2000/svg">
<g clip-path="url(#clip0_201_67921)">
<path d="M19.2 7H18.81C18.9298 6.67993 18.9941 6.34173 19 6C18.979 5.18659 18.637 4.41453 18.0487 3.85243C17.4604 3.29033 16.6735 2.98388 15.86 3C15.0605 3.01727 14.2804 3.24916 13.6013 3.67139C12.9222 4.09362 12.3691 4.69066 12 5.4C11.6308 4.69066 11.0778 4.09362 10.3987 3.67139C9.71957 3.24916 8.93945 3.01727 8.13999 3C7.32647 2.98388 6.53962 3.29033 5.95129 3.85243C5.36296 4.41453 5.02096 5.18659 4.99999 6C5.0059 6.34173 5.07016 6.67993 5.18999 7H4.79999C4.53685 7.02499 4.28127 7.10189 4.04803 7.22626C3.81479 7.35063 3.60851 7.51999 3.44113 7.72457C3.27375 7.92915 3.14858 8.16488 3.07286 8.41813C2.99714 8.67137 2.97237 8.93712 2.99999 9.2V12.8C2.95327 13.2842 3.07777 13.7695 3.35182 14.1715C3.62588 14.5734 4.03215 14.8666 4.49999 15V19.37C4.53086 19.8236 4.73703 20.2473 5.07487 20.5516C5.4127 20.8558 5.85566 21.0166 6.30999 21H17.69C18.1509 21.0163 18.5995 20.85 18.9385 20.5373C19.2774 20.2246 19.4792 19.7907 19.5 19.33V15C19.9678 14.8666 20.3741 14.5734 20.6482 14.1715C20.9222 13.7695 21.0467 13.2842 21 12.8V9.2C21.0276 8.93712 21.0028 8.67137 20.9271 8.41813C20.8514 8.16488 20.7262 7.92915 20.5589 7.72457C20.3915 7.51999 20.1852 7.35063 19.952 7.22626C19.7187 7.10189 19.4631 7.02499 19.2 7ZM19 9.2V12.8C19.012 12.8661 19.012 12.9339 19 13H13V9H19C19.012 9.06613 19.012 9.13388 19 9.2ZM15.86 5C16.1433 4.98349 16.4217 5.07914 16.635 5.26627C16.8483 5.4534 16.9795 5.71698 17 6C16.9795 6.28303 16.8483 6.5466 16.635 6.73373C16.4217 6.92086 16.1433 7.01651 15.86 7H13.4C13.575 6.46577 13.8999 5.99316 14.3361 5.63853C14.7723 5.28391 15.3013 5.06225 15.86 5ZM6.99999 6C7.02053 5.71698 7.15164 5.4534 7.36496 5.26627C7.57829 5.07914 7.8567 4.98349 8.13999 5C8.6969 5.06407 9.22375 5.28655 9.65801 5.64105C10.0923 5.99555 10.4157 6.46719 10.59 7H8.13999C7.8567 7.01651 7.57829 6.92086 7.36496 6.73373C7.15164 6.5466 7.02053 6.28303 6.99999 6ZM4.99999 9.2C4.98799 9.13388 4.98799 9.06613 4.99999 9H11V13H4.99999C4.98799 12.9339 4.98799 12.8661 4.99999 12.8V9.2ZM6.49999 15H11V19H6.49999V15ZM13 19V15H17.5V19H13Z" fill="black"/>
</g>
<defs>
<clipPath id="clip0_201_67921">
<rect width="24" height="24" fill="white"/>
</clipPath>
</defs>
</svg>
