<svg width="24" height="24" viewBox="0 0 24 24" fill="none" xmlns="http://www.w3.org/2000/svg">
<path d="M9.4214 6.86127L16.1389 13.5788L5.83965 20.2501L2.81677 17.2272L9.4214 6.86127Z" stroke="#333333" stroke-width="2" stroke-linecap="round" stroke-linejoin="round"/>
<path d="M19.3864 9.75516C18.8561 10.2855 18.5066 10.2896 17.9804 10.4705C17.9641 11.8684 17.9835 13.2751 16.2096 13.6225L9.30164 6.71451C9.30164 6.71451 9.29699 6.02971 9.99969 5.67171C10.2471 5.55576 10.7489 5.61061 11.0479 5.65926C11.751 4.14682 12.8157 3.89151 13.9994 4.38049C14.5671 3.52165 15.9691 3.1559 17.0135 3.49315C18.0578 3.83039 18.0497 4.52931 18.7445 4.87064C19.4394 5.21196 20.1465 4.50485 20.1506 4.15538C20.1547 3.8059 20.0934 3.13739 20.5645 3.25861C20.8521 3.33623 21.0835 3.61611 21.3623 4.78063C21.5179 5.43431 21.4274 6.40131 20.8689 6.99496C20.5261 7.35926 19.7605 7.54971 19.4109 7.65831C19.4442 7.75356 19.9168 9.22486 19.3864 9.75516Z" stroke="#333333" stroke-width="2" stroke-linecap="round" stroke-linejoin="round"/>
<path d="M19.4108 7.65817C18.0047 8.37342 16.9604 8.03617 15.9242 6.99997" stroke="#333333" stroke-width="2" stroke-linecap="round" stroke-linejoin="round"/>
</svg>
