<svg width="24" height="24" viewBox="0 0 24 24" fill="none" xmlns="http://www.w3.org/2000/svg">
<g clip-path="url(#clip0_201_50190)">
<path d="M23.7551 0H0.244873V23.5102H23.7551V0Z" fill="white" fill-opacity="0.01"/>
<path d="M8.56965 3.7644C8.92549 3.7644 9.25336 3.95739 9.42611 4.26853L10.6243 6.42697C10.7812 6.70958 10.7886 7.05141 10.644 7.34054L9.48968 9.64929C9.48968 9.64929 9.82421 11.3692 11.2242 12.7692C12.6243 14.1692 14.3384 14.498 14.3384 14.498L16.6468 13.3438C16.9361 13.1991 17.2782 13.2066 17.5609 13.3638L19.7254 14.5672C20.0363 14.7401 20.229 15.0678 20.229 15.4234V17.9084C20.229 19.1739 19.0536 20.0879 17.8546 19.6832C15.3919 18.8523 11.5692 17.2702 9.14624 14.8472C6.72332 12.4243 5.14114 8.60157 4.31019 6.13892C3.9056 4.93985 4.81961 3.7644 6.08506 3.7644H8.56965Z" stroke="#333333" stroke-width="1.95918" stroke-linejoin="round"/>
</g>
<defs>
<clipPath id="clip0_201_50190">
<rect width="24" height="24" fill="white"/>
</clipPath>
</defs>
</svg>
