<svg width="24" height="24" viewBox="0 0 24 24" fill="none" xmlns="http://www.w3.org/2000/svg">
<path d="M20.0516 12.9085C19.6034 14.0499 15.2154 14.4127 10.6809 13.1977C6.14646 11.9827 3.29141 9.77611 3.63086 8.50856C4.39773 5.64661 8.48721 1.23108 14.3356 3.3443C20.184 5.45751 20.8185 10.0465 20.0516 12.9085Z" stroke="#333333" stroke-width="2" stroke-linecap="round" stroke-linejoin="round"/>
<path d="M13.9998 3.5C13.9998 3.5 11.9997 6.75 10.4998 12C8.99988 17.25 8.99988 21 8.99988 21" stroke="#333333" stroke-width="2" stroke-linecap="round" stroke-linejoin="round"/>
<path d="M14.0001 3.5C14.0001 3.5 8.89705 4.42176 7.5 8.5" stroke="#333333" stroke-width="2" stroke-linecap="round" stroke-linejoin="round"/>
<path d="M14.0001 3.5C14.0001 3.5 17 6.5 15.4999 11" stroke="#333333" stroke-width="2" stroke-linecap="round" stroke-linejoin="round"/>
<path d="M5 21.5C5 21.5 9.5 20.75 13 20.75C16.5 20.75 19.5 21 19.5 21" stroke="#333333" stroke-width="2" stroke-linecap="round" stroke-linejoin="round"/>
<path d="M13.9999 3.50007C14.5 3.50007 15.5 3.00007 15.9072 2.20996" stroke="#333333" stroke-width="2" stroke-linecap="round" stroke-linejoin="round"/>
<path d="M17 20.5C17 19.6715 16.5 18.5 15 18.5C13.5 18.5 13 19.6715 13 20.5" stroke="#333333" stroke-width="2" stroke-linecap="round" stroke-linejoin="round"/>
</svg>
