<svg width="24" height="24" viewBox="0 0 24 24" fill="none" xmlns="http://www.w3.org/2000/svg">
<path d="M2.09447 11.0866C2.04367 10.5023 2.50424 10 3.09071 10H4.99998C5.55228 10 5.99998 10.4477 5.99998 11V20.5C5.99998 21.0523 5.55228 21.5 4.99998 21.5H3.9168C3.39809 21.5 2.96549 21.1034 2.92056 20.5867L2.09447 11.0866Z" stroke="#333333" stroke-width="2" stroke-linecap="round" stroke-linejoin="round"/>
<path d="M9 10.6873C9 10.2694 9.2597 9.8954 9.63765 9.71725C10.4619 9.3287 11.8665 8.5469 12.5 7.49025C13.3166 6.12845 13.4705 3.66798 13.4956 3.10439C13.4991 3.0255 13.4968 2.94651 13.5077 2.86828C13.643 1.89223 15.5271 3.03246 16.25 4.23806C16.6423 4.89236 16.6926 5.752 16.6514 6.42315C16.6072 7.14125 16.3966 7.83495 16.1901 8.52415L15.75 9.99225H21.1784C21.8416 9.99225 22.3211 10.6259 22.1408 11.264L19.4557 20.7718C19.334 21.2025 18.9409 21.5 18.4933 21.5H10C9.4477 21.5 9 21.0523 9 20.5V10.6873Z" stroke="#333333" stroke-width="2" stroke-linecap="round" stroke-linejoin="round"/>
</svg>
